PathFileType	4	(X/Y/Z)	c:/Users/goper/Files/vsCode/490R/osim_files/C15/C15_Static03.trc
DataRate	CameraRate	NumFrames	NumMarkers	Units                	OrigDataRate	OrigDataStartFrame	OrigNumFrames
250.00	250.00	10	36	mm	250.0	419	1115
                Frame#	Time	LPSIS			LASIS			LTH1			LTH2			LTH3			LTH4			LLFE			LMFE			LSH1			LSH2			LSH3			LSH4			LLMAL			LMMAL			LCAL			LMTP5			LTOE			LMTP1			RPSIS			RASIS			RTH1			RTH2			RTH3			RTH4			RLFE			RMFE			RSH1			RSH2			RSH3			RSH4			RLMAL			RMMAL			RCAL			RMTP1			RTOE			RMTP5		
		X1	Y1	Z1	X2	Y2	Z2	X3	Y3	Z3	X4	Y4	Z4	X5	Y5	Z5	X6	Y6	Z6	X7	Y7	Z7	X8	Y8	Z8	X9	Y9	Z9	X10	Y10	Z10	X11	Y11	Z11	X12	Y12	Z12	X13	Y13	Z13	X14	Y14	Z14	X15	Y15	Z15	X16	Y16	Z16	X17	Y17	Z17	X18	Y18	Z18	X19	Y19	Z19	X20	Y20	Z20	X21	Y21	Z21	X22	Y22	Z22	X23	Y23	Z23	X24	Y24	Z24	X25	Y25	Z25	X26	Y26	Z26	X27	Y27	Z27	X28	Y28	Z28	X29	Y29	Z29	X30	Y30	Z30	X31	Y31	Z31	X32	Y32	Z32	X33	Y33	Z33	X34	Y34	Z34	X35	Y35	Z35	X36	Y36	Z36

419	1.67200	-417.82428	1028.16638	401.00684	-255.38673	1008.40900	329.34988	-345.48505	634.52032	249.97786	-350.68967	587.25378	263.29999	-293.59140	637.46014	252.72108	-296.10706	592.20880	259.48499	-333.82489	499.95148	276.43259	-328.94904	476.46494	395.45920	-405.15375	396.13605	258.99182	-408.41522	353.68607	249.78311	-343.87201	387.90735	256.06665	-354.80664	345.09271	247.18761	-402.41461	85.04330	288.55341	-382.33743	104.13338	379.40240	-463.62204	58.35332	331.70010	-280.78793	35.97179	263.29834	-224.43802	58.67797	326.42068	-260.18887	38.86105	381.74567	-411.58807	1028.71973	521.00098	-254.66791	1002.60211	583.48364	-330.08496	642.00275	652.04553	-331.02100	595.22888	646.50763	-270.75092	636.25085	638.40735	-279.72192	590.26196	637.75879	-328.41437	497.21011	624.05444	-345.83755	473.75241	507.92694	-419.08524	400.30176	649.09741	-421.46777	357.22351	656.25311	-357.52847	388.69751	651.01666	-370.03238	348.64761	658.92273	-416.20486	84.78391	616.65228	-386.85883	102.91673	528.81531	-476.88031	58.71635	572.45703	-273.45908	37.48852	534.78339	-239.14552	55.62342	588.42639	-299.40167	31.04113	653.98926
420	1.67600	-417.82855	1028.17542	401.00885	-255.41133	1008.39136	329.39017	-345.49731	634.51807	249.96503	-350.66629	587.29053	263.29767	-293.60001	637.44904	252.73154	-296.10294	592.20642	259.50949	-333.83371	499.96228	276.43600	-328.95166	476.45645	395.49701	-405.13492	396.15213	258.95630	-408.42450	353.71033	249.79518	-343.86459	387.89322	256.08688	-354.80347	345.08157	247.20427	-402.40955	85.06245	288.55185	-382.30692	104.16618	379.38333	-463.62619	58.36861	331.70624	-280.80026	35.99621	263.27548	-224.46155	58.68095	326.43561	-260.20624	38.88701	381.73480	-411.61539	1028.75000	520.97363	-254.69183	1002.64172	583.49170	-330.06039	642.02435	652.05762	-331.02310	595.22467	646.47192	-270.77942	636.24933	638.40186	-279.72827	590.28210	637.75726	-328.44791	497.20758	624.00946	-345.87766	473.76968	507.92767	-419.07355	400.32455	649.08575	-421.48615	357.23264	656.25092	-357.53836	388.70303	651.00165	-370.04565	348.67255	658.91602	-416.17221	84.82156	616.63702	-386.85599	102.91624	528.81555	-476.90149	58.78207	572.41547	-273.43307	37.53753	534.77423	-239.13527	55.66128	588.42651	-299.38870	31.05385	653.98303
421	1.68000	-417.83591	1028.16956	400.99213	-255.39526	1008.39807	329.38431	-345.47894	634.52130	249.96513	-350.67557	587.30219	263.27722	-293.59045	637.44263	252.74008	-296.07309	592.18854	259.50562	-333.82974	499.94327	276.42343	-328.91208	476.45386	395.48141	-405.14294	396.15836	258.94559	-408.38113	353.71228	249.77205	-343.87198	387.89871	256.09219	-354.79517	345.08209	247.20380	-402.43024	85.06862	288.56512	-382.31555	104.15721	379.37228	-463.63980	58.36289	331.74866	-280.87811	35.80546	263.38870	-224.43321	58.70552	326.41376	-260.17767	38.91043	381.72440	-411.65494	1028.76440	520.96326	-254.70357	1002.64594	583.47943	-330.05975	642.03320	652.04913	-331.00562	595.24286	646.48615	-270.78549	636.25818	638.41016	-279.74487	590.30627	637.76086	-328.46494	497.19324	624.02618	-345.88864	473.76038	507.91165	-419.08044	400.31628	649.07672	-421.48392	357.21457	656.24329	-357.54633	388.70718	651.00323	-370.04477	348.67380	658.90979	-416.14236	84.82306	616.60083	-386.86819	102.90363	528.81622	-476.94922	58.81564	572.40265	-273.40067	37.56145	534.75555	-239.13531	55.66925	588.39868	-299.38602	31.06224	653.97992
422	1.68400	-417.82611	1028.15125	400.99570	-255.38811	1008.37177	329.39883	-345.48367	634.52570	249.95448	-350.66470	587.27179	263.28375	-293.58548	637.43353	252.76363	-296.07175	592.20038	259.53378	-333.80386	499.94131	276.43073	-328.89688	476.41531	395.51108	-405.18549	396.15930	258.96912	-408.40335	353.70312	249.78325	-343.83752	387.85690	256.07028	-354.77359	345.06943	247.22014	-402.41287	85.05476	288.54886	-382.33887	104.13379	379.38007	-463.62796	58.36252	331.72156	-280.79535	35.98351	263.25891	-224.42831	58.68375	326.41806	-260.21191	38.87691	381.72086	-411.66528	1028.74707	520.95105	-254.73016	1002.63867	583.48877	-330.07495	641.98822	652.06451	-331.02124	595.20667	646.51587	-270.78268	636.25134	638.42236	-279.71423	590.29553	637.75311	-328.42776	497.18216	624.02283	-345.90134	473.77222	507.91849	-419.07562	400.28842	649.10724	-421.48761	357.17682	656.25732	-357.57529	388.68698	651.01752	-370.06317	348.67386	658.92609	-416.15784	84.78471	616.61456	-386.87244	102.89908	528.81219	-476.95862	58.81009	572.39258	-273.42548	37.52515	534.76495	-239.12479	55.66230	588.40771	-299.40057	31.06412	653.97968
423	1.68800	-417.85004	1028.15527	400.98386	-255.39334	1008.34943	329.41165	-345.46109	634.51532	249.96812	-350.67108	587.26727	263.29953	-293.56949	637.41510	252.77682	-296.01578	592.14655	259.45706	-333.79291	499.93884	276.43332	-328.89719	476.41400	395.51389	-405.23129	396.24796	258.82141	-408.38498	353.70001	249.77414	-343.83200	387.84354	256.10364	-354.78479	345.05246	247.22032	-402.40881	85.04214	288.54181	-382.33441	104.12021	379.39673	-463.64120	58.35438	331.71939	-280.81143	35.95509	263.27310	-224.44737	58.66533	326.41815	-260.19122	38.85658	381.73700	-411.66669	1028.74158	520.95209	-254.75407	1002.61536	583.51892	-330.10089	641.97101	652.08270	-331.03680	595.15613	646.51483	-270.80725	636.24054	638.44574	-279.74243	590.25537	637.78448	-328.44485	497.16434	624.07001	-345.90155	473.75156	507.93045	-419.07050	400.26730	649.12262	-421.47263	357.16693	656.26849	-357.58789	388.65860	651.01953	-370.06512	348.63943	658.92651	-416.14572	84.76160	616.64001	-386.89828	102.87512	528.82672	-476.92001	58.75777	572.41321	-273.42365	37.50732	534.78308	-239.14487	55.62042	588.40454	-299.41846	31.04456	653.98462
424	1.69200	-417.86871	1028.15723	400.98038	-255.37956	1008.38190	329.43564	-345.46243	634.50098	249.98502	-350.66632	587.24945	263.33588	-293.53467	637.42542	252.78047	-296.02170	592.19598	259.56375	-333.80750	499.93985	276.45395	-328.93341	476.41211	395.50113	-405.12320	396.10925	258.97186	-408.41455	353.68604	249.78326	-343.82541	387.87125	256.10651	-354.76190	345.05933	247.22768	-402.41910	85.05047	288.55084	-382.33795	104.10455	379.38654	-463.61676	58.34785	331.73785	-280.79712	35.92645	263.28098	-224.44067	58.65004	326.43524	-260.21658	38.83309	381.74509	-411.68152	1028.69678	520.97571	-254.76826	1002.60254	583.55035	-330.09656	641.95526	652.10748	-331.02643	595.13757	646.54596	-270.80222	636.23065	638.48248	-279.77405	590.24396	637.80365	-328.47702	497.09723	624.04840	-345.92947	473.74716	507.95132	-419.09421	400.24194	649.14056	-421.45508	357.15671	656.27777	-357.54355	388.64709	651.03516	-370.07339	348.60721	658.95197	-416.17816	84.72054	616.64117	-386.89844	102.87761	528.81689	-476.88153	58.67858	572.45294	-273.47003	37.47424	534.79279	-239.15257	55.59998	588.43274	-299.42380	31.00327	653.99365
425	1.69600	-417.89969	1028.15125	400.99048	-255.38133	1008.36530	329.45926	-345.43661	634.47595	250.01152	-350.70511	587.21014	263.36816	-293.54453	637.42944	252.79674	-296.04831	592.16901	259.55539	-333.78394	499.91794	276.48462	-328.96048	476.40292	395.50711	-405.16928	396.07266	258.99908	-408.38782	353.66678	249.77905	-343.80258	387.88971	256.12277	-354.75204	345.05798	247.22916	-402.42722	85.03084	288.55524	-382.36176	104.06314	379.40500	-463.63748	58.33566	331.68726	-280.90417	35.76572	263.41769	-224.43936	58.62317	326.44650	-260.22797	38.80595	381.75897	-411.68109	1028.67004	520.98956	-254.79092	1002.58514	583.58966	-330.13547	641.90924	652.11877	-331.04446	595.10962	646.54175	-270.80533	636.20886	638.51752	-279.78528	590.21484	637.83234	-328.45496	497.10904	624.09778	-345.91745	473.74658	507.96762	-419.09134	400.21774	649.13843	-421.47299	357.13498	656.30133	-357.56055	388.62686	651.06049	-370.07550	348.59842	658.95959	-416.18527	84.69577	616.67072	-386.89917	102.86848	528.82544	-476.87473	58.63913	572.47083	-273.46625	37.43045	534.82196	-239.17950	55.46399	588.37134	-299.45645	30.97797	654.00745
426	1.70000	-417.90372	1028.15063	400.99344	-255.36974	1008.38489	329.48239	-345.41513	634.46906	250.03641	-350.70688	587.16199	263.39673	-293.54752	637.43616	252.80283	-296.03342	592.18994	259.58267	-333.76538	499.91730	276.49103	-328.99399	476.42264	395.49460	-405.15131	396.05328	259.00436	-408.38812	353.66833	249.79433	-343.78763	387.88306	256.14188	-354.73322	345.08273	247.25333	-402.44229	85.02538	288.55634	-382.35983	104.06363	379.41446	-463.69662	58.35132	331.68433	-280.90744	35.78707	263.40967	-224.44504	58.62368	326.45419	-260.25552	38.79159	381.76819	-411.68835	1028.65833	521.00256	-254.82915	1002.57544	583.60156	-330.17929	641.90491	652.13074	-331.07968	595.12268	646.57629	-270.83194	636.21338	638.53625	-279.81818	590.21490	637.86353	-328.53085	497.08777	624.09802	-345.93973	473.73553	507.99625	-419.10928	400.21173	649.15759	-421.50879	357.15179	656.30060	-357.60468	388.64014	651.08319	-370.09976	348.60031	658.98236	-416.24469	84.69543	616.68524	-386.91626	102.87885	528.83099	-476.85822	58.60102	572.48523	-273.48804	37.41341	534.84094	-239.19319	55.57656	588.45410	-299.45752	30.96535	654.01831
427	1.70400	-417.93030	1028.16260	401.01431	-255.34940	1008.37927	329.48895	-345.43024	634.45581	250.08603	-350.66565	587.15051	263.43280	-293.51065	637.44330	252.82948	-295.99475	592.20087	259.59024	-333.77219	499.90875	276.52255	-328.97934	476.44601	395.50980	-405.19180	396.22501	258.84219	-408.38367	353.65634	249.81116	-343.77411	387.90543	256.13138	-354.71896	345.09171	247.24855	-402.41357	85.01640	288.56638	-382.38043	104.06008	379.41370	-463.67252	58.34877	331.69940	-280.90872	35.79330	263.41602	-224.44603	58.63662	326.45383	-260.26593	38.78170	381.77399	-411.71494	1028.67053	521.01636	-254.83235	1002.59827	583.62317	-330.21609	641.90820	652.13147	-331.08774	595.13293	646.56555	-270.82193	636.22296	638.55450	-279.80658	590.22717	637.86316	-328.52426	497.11938	624.10138	-345.92529	473.73621	508.00372	-419.13519	400.23950	649.15131	-421.51126	357.16177	656.30499	-357.57938	388.63513	651.08087	-370.09695	348.60129	658.97009	-416.27151	84.69491	616.67230	-386.90427	102.87822	528.83423	-476.87762	58.62476	572.50488	-273.47836	37.43743	534.82166	-239.16330	55.58838	588.45209	-299.47345	30.96584	654.01501
428	1.70800	-417.89862	1028.16870	401.02591	-255.36809	1008.37354	329.51147	-345.40512	634.41815	250.10757	-350.65979	587.12750	263.44882	-293.48013	637.42841	252.84888	-295.96860	592.15887	259.52826	-333.74600	499.90823	276.54370	-328.95566	476.46118	395.52344	-405.13220	396.03223	259.04584	-408.36948	353.67465	249.82333	-343.77420	387.89047	256.13742	-354.72058	345.07431	247.26770	-402.42413	85.01000	288.58060	-382.39087	104.06053	379.42474	-463.66235	58.33466	331.68912	-280.90366	35.78045	263.42459	-224.44669	58.62669	326.46350	-260.26938	38.78683	381.77615	-411.70834	1028.67273	521.03461	-254.82758	1002.61163	583.66724	-330.24411	641.85449	652.20892	-331.12845	595.12366	646.60046	-270.82819	636.22656	638.56256	-279.82346	590.22009	637.87854	-328.50406	497.16907	624.13232	-345.91129	473.74875	508.02380	-419.14508	400.22769	649.16895	-421.50247	357.18213	656.32349	-357.57852	388.64844	651.08594	-370.09009	348.61157	658.99310	-416.26682	84.70186	616.68976	-386.90964	102.86690	528.85400	-476.86560	58.63709	572.49139	-273.50925	37.42713	534.83667	-239.13783	55.59367	588.45435	-299.46112	30.96714	654.01367
